{"title":"Empty Nest Season 6 (1993 - 94) fiveofseven","uid":15585345,"size":5069565034,"categoryP":"video","categoryS":"tv_shows","magnet":"?xt=urn:btih:03a173a8568eaeafa31a87995369780095b7f1fd&amp;dn=Empty+Nest+Season+6+%281993+-+94%29+fiveofseven&amp;tr=udp%3A%2F%2Ftracker.leechers-paradise.org%3A6969&amp;tr=udp%3A%2F%2Fzer0day.ch%3A1337&amp;tr=udp%3A%2F%2Fopen.demonii.com%3A1337&amp;tr=udp%3A%2F%2Ftracker.coppersurfer.tk%3A6969&amp;tr=udp%3A%2F%2Fexodus.desync.com%3A6969","seeders":2,"leechers":2,"uploader":"fiveofseven","files":52,"time":1471459150,"description":"\nhttp://extraimago.com/images/2016/04/07/emptynestlatersmall.jpg \r\n   \nhttp://extraimago.com/images/2016/04/07/vlcsnap-2016-04-07-16h06m33s144.png  \r\n  \r\n\r\nPLOT - The show revolves around pediatrician Dr. Harry Weston (Richard Mulligan), \r\nwhose life is turned upside down when his wife, Libby, dies, and two of his three\r\nadult daughters move back into the family home in Miami. \r\n\r\nIn season six, Harry retired, eventually going to work for a struggling inner-city \r\nmedical clinic run by the tough-talking Dr. Maxine Douglas (Marsha Warfield). \r\nLaverne, having been fired by Dr. Weston's replacement, came to work there as well.\r\n\r\nCarol is the only daughter living at home now and Estelle Getty reprised her \r\nGolden Girls character Sophia Petrillo during Empty Nest's final two seasons.\r\n\r\n\r\nINFO (Based on 1st episode only)\r\n\r\nEncoder: fiveofseven\r\nSource: SDTV \r\n(Not HD, LAFF logo remains in screen &amp; usually 2 quick banners per episode)\r\n  http://extraimago.com/images/2016/04/05/vlcsnap-2016-03-01-15h17m30s324.png \r\nRating: TV-PG\r\nGenre: Comedy, Family\r\nSubtitles: English\r\n\r\nGeneral\r\nComplete name                            : 01 When the Rooster Dies - fiveofseven.mp4\r\nFormat                                   : MPEG-4\r\nFormat profile                           : Base Media\r\nCodec ID                                 : isom\r\nFile size                                : 185 MiB\r\nDuration                                 : 22mn 52s\r\nOverall bit rate mode                    : Variable\r\nOverall bit rate                         : 1 133 Kbps\r\nEncoded date                             : UTC 2015-11-11 20:08:50\r\nTagged date                              : UTC 2015-11-11 20:23:42\r\nWriting application                      : My MP4Box GUI 0.6.0.6 &lt;http://my-mp4box-gui.zymichost.com&gt;\r\n\r\nVideo\r\nID                                       : 1\r\nFormat                                   : AVC\r\nFormat/Info                              : Advanced Video Codec\r\nFormat profile                           :   \r\nFormat settings, CABAC                   : Yes\r\nFormat settings, ReFrames                : 7 frames\r\nCodec ID                                 : avc1\r\nCodec ID/Info                            : Advanced Video Coding\r\nDuration                                 : 22mn 51s\r\nBit rate                                 : 1 000 Kbps\r\nMaximum bit rate                         : 2 515 Kbps\r\nWidth                                    : 640 pixels\r\nHeight                                   : 472 pixels\r\nDisplay aspect ratio                     : 4:3\r\nFrame rate mode                          : Constant\r\nFrame rate                               : 29.970 fps\r\nColor space                              : YUV\r\nChroma subsampling                       : 4:2:0\r\nBit depth                                : 8 bits\r\nScan type                                : Progressive\r\nBits/(Pixel*Frame)                       : 0.110\r\nStream size                              : 164 MiB (88%)\r\nTitle                                    : en.mp4\r\nWriting library                          : x264 core 146 r2538 121396c\r\nLanguage                                 : English\r\nEncoded date                             : UTC 2015-11-11 15:23:39\r\nTagged date                              : UTC 2015-11-11 20:08:56\r\n\r\nAudio\r\nID                                       : 2\r\nFormat                                   : AAC\r\nFormat/Info                              : Advanced Audio Codec\r\nFormat profile                           : LC\r\nCodec ID                                 : 40\r\nDuration                                 : 22mn 52s\r\nBit rate mode                            : Variable\r\nBit rate                                 : 128 Kbps\r\nMaximum bit rate                         : 133 Kbps\r\nChannel count                            : 2 channels\r\nChannel positions                        : Front: L R\r\nSampling rate                            : 48.0 KHz\r\nCompression mode                         : Lossy\r\nDelay relative to video                  : 100ms\r\nStream size                              : 20.9 MiB (11%)\r\nTitle                                    : aac.mp4\r\nLanguage                                 : English\r\nEncoded date                             : UTC 2015-11-11 20:08:55\r\nTagged date                              : UTC 2015-11-11 20:08:56\r\n\r\n\r\nScreenshots - \r\n   \nhttp://extraimago.com/images/2016/04/05/vlcsnap-2016-04-05-10h37m25s730.png \r\n  \nhttp://extraimago.com/images/2016/04/05/vlcsnap-2016-04-05-10h41m28s361.png \r\n  \nhttp://extraimago.com/images/2016/04/05/vlcsnap-2016-04-05-10h44m01s488.png \r\n  \nhttp://extraimago.com/images/2016/04/05/vlcsnap-2016-04-05-10h48m14s482.png \r\n  \nhttp://extraimago.com/images/2016/04/05/vlcsnap-2016-04-05-10h55m21s482.png \r\n  \nhttp://extraimago.com/images/2016/04/05/vlcsnap-2016-04-05-10h56m29s436.png \r\n \r\nsignature \r\n   \nhttp://extraimago.com/images/2016/07/27/fiveofsseven_zps27a01108.png","torrent":{"xt":"urn:btih:03a173a8568eaeafa31a87995369780095b7f1fd","amp;dn":"Empty+Nest+Season+6+%281993+-+94%29+fiveofseven","amp;tr":["udp%3A%2F%2Ftracker.leechers-paradise.org%3A6969","udp%3A%2F%2Fzer0day.ch%3A1337","udp%3A%2F%2Fopen.demonii.com%3A1337","udp%3A%2F%2Ftracker.coppersurfer.tk%3A6969","udp%3A%2F%2Fexodus.desync.com%3A6969"],"infoHash":"03a173a8568eaeafa31a87995369780095b7f1fd","infoHashBuffer":{"type":"Buffer","data":[3,161,115,168,86,142,174,175,163,26,135,153,83,105,120,0,149,183,241,253]},"announce":[],"urlList":[]}}